<svg width="356" height="112" viewBox="0 0 356 112" fill="none" xmlns="http://www.w3.org/2000/svg">
<g filter="url(#filter0_d_1_82)">
<rect x="4.5" y="24.5" width="174" height="54" rx="15.5" stroke="white"/>
<rect x="172.5" y="24.5" width="179" height="54" rx="15.5" stroke="#EC2F46"/>
<rect x="33" y="19" width="292" height="56" fill="#040814"/>
<rect x="24" y="69" width="308" height="18" fill="#040814"/>
<path d="M77.1424 71.0585H66.414C66.2181 69.6849 65.818 68.4648 65.2138 67.3983C64.6096 66.3156 63.834 65.3945 62.8869 64.635C61.9398 63.8755 60.8457 63.2937 59.6047 62.8897C58.38 62.4857 57.0492 62.2837 55.6122 62.2837C53.0158 62.2837 50.7542 62.9221 48.8274 64.1987C46.9005 65.4591 45.4064 67.3013 44.345 69.7253C43.2836 72.1331 42.7529 75.058 42.7529 78.5C42.7529 82.039 43.2836 85.0124 44.345 87.4202C45.4227 89.8279 46.925 91.6459 48.8519 92.8741C50.7787 94.1022 53.0077 94.7163 55.5387 94.7163C56.9594 94.7163 58.2739 94.5304 59.4822 94.1587C60.7069 93.7871 61.7928 93.2457 62.7399 92.5347C63.687 91.8075 64.4708 90.9268 65.0914 89.8926C65.7282 88.8584 66.1691 87.6787 66.414 86.3536L77.1424 86.4021C76.8648 88.6806 76.1708 90.8783 75.0604 92.9953C73.9663 95.096 72.4885 96.9786 70.627 98.6431C68.7818 100.291 66.5773 101.6 64.0136 102.57C61.4662 103.523 58.5841 104 55.3673 104C50.893 104 46.8923 102.998 43.3652 100.994C39.8544 98.9905 37.0784 96.0898 35.0373 92.2923C33.0124 88.4948 32 83.8973 32 78.5C32 73.0865 33.0287 68.481 35.0862 64.6835C37.1437 60.8859 39.936 57.9933 43.4632 56.0057C46.9903 54.0019 50.9583 53 55.3673 53C58.2739 53 60.9682 53.404 63.4503 54.212C65.9486 55.02 68.1613 56.1996 70.0881 57.7509C72.015 59.2861 73.5826 61.1687 74.791 63.3988C76.0157 65.6288 76.7995 68.182 77.1424 71.0585Z" fill="white"/>
<path d="M128.086 78.5C128.086 83.9135 127.05 88.519 124.976 92.3165C122.918 96.1141 120.11 99.0147 116.55 101.019C113.006 103.006 109.022 104 104.597 104C100.139 104 96.1381 102.998 92.5947 100.994C89.0512 98.9905 86.2507 96.0898 84.1932 92.2923C82.1357 88.4948 81.107 83.8973 81.107 78.5C81.107 73.0865 82.1357 68.481 84.1932 64.6835C86.2507 60.8859 89.0512 57.9933 92.5947 56.0057C96.1381 54.0019 100.139 53 104.597 53C109.022 53 113.006 54.0019 116.55 56.0057C120.11 57.9933 122.918 60.8859 124.976 64.6835C127.05 68.481 128.086 73.0865 128.086 78.5ZM117.334 78.5C117.334 74.9933 116.803 72.0361 115.741 69.6283C114.696 67.2205 113.219 65.3945 111.308 64.1502C109.398 62.9059 107.16 62.2837 104.597 62.2837C102.033 62.2837 99.7959 62.9059 97.8854 64.1502C95.9748 65.3945 94.4889 67.2205 93.4274 69.6283C92.3824 72.0361 91.8598 74.9933 91.8598 78.5C91.8598 82.0067 92.3824 84.9639 93.4274 87.3717C94.4889 89.7795 95.9748 91.6055 97.8854 92.8498C99.7959 94.0941 102.033 94.7163 104.597 94.7163C107.16 94.7163 109.398 94.0941 111.308 92.8498C113.219 91.6055 114.696 89.7795 115.741 87.3717C116.803 84.9639 117.334 82.0067 117.334 78.5Z" fill="white"/>
<path d="M133.184 53.6787H146.264L160.078 87.0323H160.666L174.481 53.6787H187.56V103.321H177.273V71.01H176.857L163.875 103.079H156.87L143.888 70.8888H143.471V103.321H133.184V53.6787Z" fill="white"/>
<path d="M193.54 103.321V53.6787H213.625C217.315 53.6787 220.393 54.2201 222.859 55.3028C225.325 56.3855 227.178 57.8883 228.419 59.8113C229.66 61.7182 230.281 63.9159 230.281 66.4045C230.281 68.3436 229.889 70.0485 229.105 71.519C228.321 72.9734 227.243 74.1692 225.872 75.1065C224.516 76.0276 222.965 76.682 221.218 77.0699V77.5547C223.128 77.6355 224.916 78.1687 226.582 79.1545C228.264 80.1402 229.627 81.5219 230.673 83.2994C231.718 85.0608 232.24 87.1616 232.24 89.6017C232.24 92.2357 231.579 94.587 230.256 96.6554C228.95 98.7077 227.015 100.332 224.451 101.528C221.887 102.723 218.728 103.321 214.972 103.321H193.54ZM204.146 94.7405H212.792C215.748 94.7405 217.903 94.183 219.258 93.068C220.614 91.9368 221.291 90.4339 221.291 88.5594C221.291 87.1858 220.957 85.9739 220.287 84.9235C219.618 83.8731 218.662 83.049 217.421 82.451C216.197 81.8531 214.735 81.5542 213.037 81.5542H204.146V94.7405ZM204.146 74.452H212.008C213.461 74.452 214.751 74.2015 215.878 73.7006C217.021 73.1835 217.919 72.4563 218.573 71.519C219.242 70.5817 219.577 69.4587 219.577 68.1497C219.577 66.356 218.932 64.9097 217.642 63.8108C216.368 62.712 214.556 62.1625 212.204 62.1625H204.146V74.452Z" fill="white"/>
<path d="M282.48 78.5C282.48 83.9135 281.443 88.519 279.369 92.3165C277.312 96.1141 274.503 99.0147 270.943 101.019C267.4 103.006 263.416 104 258.99 104C254.532 104 250.532 102.998 246.988 100.994C243.445 98.9905 240.644 96.0898 238.587 92.2923C236.529 88.4948 235.501 83.8973 235.501 78.5C235.501 73.0865 236.529 68.481 238.587 64.6835C240.644 60.8859 243.445 57.9933 246.988 56.0057C250.532 54.0019 254.532 53 258.99 53C263.416 53 267.4 54.0019 270.943 56.0057C274.503 57.9933 277.312 60.8859 279.369 64.6835C281.443 68.481 282.48 73.0865 282.48 78.5ZM271.727 78.5C271.727 74.9933 271.196 72.0361 270.135 69.6283C269.09 67.2205 267.612 65.3945 265.702 64.1502C263.791 62.9059 261.554 62.2837 258.99 62.2837C256.427 62.2837 254.189 62.9059 252.279 64.1502C250.368 65.3945 248.882 67.2205 247.821 69.6283C246.776 72.0361 246.253 74.9933 246.253 78.5C246.253 82.0067 246.776 84.9639 247.821 87.3717C248.882 89.7795 250.368 91.6055 252.279 92.8498C254.189 94.0941 256.427 94.7163 258.99 94.7163C261.554 94.7163 263.791 94.0941 265.702 92.8498C267.612 91.6055 269.09 89.7795 270.135 87.3717C271.196 84.9639 271.727 82.0067 271.727 78.5Z" fill="white"/>
<path d="M302.274 95.7586V61.4354H311.043V95.7586H302.274ZM289.316 82.9358V74.2581H324V82.9358H289.316Z" fill="white"/>
<path d="M41.2421 13.5455L48.799 34.973H49.0973L56.6541 13.5455H59.8856L50.539 39H47.3572L38.0106 13.5455H41.2421ZM67.2933 39.4474C66.0835 39.4474 64.9856 39.2196 63.9996 38.7638C63.0136 38.2998 62.2305 37.6328 61.6505 36.7628C61.0705 35.8845 60.7805 34.8239 60.7805 33.581C60.7805 32.4872 60.9959 31.6006 61.4268 30.9212C61.8577 30.2334 62.4335 29.6948 63.1544 29.3054C63.8753 28.916 64.6708 28.6259 65.5408 28.4354C66.4191 28.2365 67.3016 28.0791 68.1882 27.9631C69.3482 27.8139 70.2887 27.7021 71.0095 27.6275C71.7387 27.5446 72.269 27.4079 72.6005 27.2173C72.9402 27.0268 73.11 26.6953 73.11 26.223V26.1236C73.11 24.8973 72.7745 23.9444 72.1033 23.2649C71.4404 22.5855 70.4337 22.2457 69.0831 22.2457C67.6827 22.2457 66.5848 22.5523 65.7894 23.1655C64.9939 23.7786 64.4346 24.4332 64.1115 25.1293L61.3274 24.1349C61.8245 22.9749 62.4874 22.0717 63.316 21.4254C64.1529 20.7708 65.0643 20.3151 66.0504 20.0582C67.0447 19.7931 68.0224 19.6605 68.9836 19.6605C69.5968 19.6605 70.3011 19.7351 71.0965 19.8842C71.9003 20.0251 72.675 20.3192 73.4208 20.7667C74.1748 21.2141 74.8004 21.8894 75.2975 22.7926C75.7947 23.6958 76.0433 24.9055 76.0433 26.4219V39H73.11V36.4148H72.9609C72.762 36.8291 72.4306 37.2724 71.9666 37.7447C71.5026 38.217 70.8853 38.6188 70.1147 38.9503C69.3441 39.2817 68.4036 39.4474 67.2933 39.4474ZM67.7407 36.8125C68.9008 36.8125 69.8785 36.5846 70.674 36.1289C71.4777 35.6732 72.0826 35.0849 72.4886 34.364C72.9029 33.6431 73.11 32.8849 73.11 32.0895V29.4048C72.9858 29.554 72.7123 29.6907 72.2897 29.815C71.8754 29.931 71.3948 30.0346 70.848 30.1257C70.3094 30.2086 69.7832 30.2831 69.2695 30.3494C68.764 30.4074 68.3539 30.4571 68.039 30.4986C67.2767 30.598 66.5641 30.7596 65.9012 30.9833C65.2466 31.1987 64.7163 31.526 64.3103 31.9652C63.9126 32.3961 63.7137 32.9844 63.7137 33.7301C63.7137 34.7493 64.0907 35.5199 64.8448 36.0419C65.6071 36.5556 66.5724 36.8125 67.7407 36.8125ZM84.3303 13.5455V39H81.3971V13.5455H84.3303ZM97.4584 39.3977C95.7349 39.3977 94.2227 38.9876 92.9218 38.1673C91.6292 37.3469 90.6183 36.1993 89.8892 34.7244C89.1683 33.2495 88.8078 31.526 88.8078 29.554C88.8078 27.5653 89.1683 25.8294 89.8892 24.3462C90.6183 22.863 91.6292 21.7113 92.9218 20.891C94.2227 20.0707 95.7349 19.6605 97.4584 19.6605C99.1819 19.6605 100.69 20.0707 101.983 20.891C103.283 21.7113 104.294 22.863 105.015 24.3462C105.744 25.8294 106.109 27.5653 106.109 29.554C106.109 31.526 105.744 33.2495 105.015 34.7244C104.294 36.1993 103.283 37.3469 101.983 38.1673C100.69 38.9876 99.1819 39.3977 97.4584 39.3977ZM97.4584 36.7628C98.7676 36.7628 99.8448 36.4272 100.69 35.756C101.535 35.0849 102.161 34.2024 102.567 33.1087C102.973 32.0149 103.176 30.83 103.176 29.554C103.176 28.2779 102.973 27.0889 102.567 25.9869C102.161 24.8848 101.535 23.9941 100.69 23.3146C99.8448 22.6352 98.7676 22.2955 97.4584 22.2955C96.1492 22.2955 95.072 22.6352 94.2269 23.3146C93.3817 23.9941 92.7561 24.8848 92.3501 25.9869C91.9441 27.0889 91.7411 28.2779 91.7411 29.554C91.7411 30.83 91.9441 32.0149 92.3501 33.1087C92.7561 34.2024 93.3817 35.0849 94.2269 35.756C95.072 36.4272 96.1492 36.7628 97.4584 36.7628ZM110.587 39V19.9091H113.42V22.7926H113.619C113.967 21.848 114.597 21.0816 115.508 20.4933C116.42 19.9049 117.447 19.6108 118.591 19.6108C118.806 19.6108 119.076 19.6149 119.399 19.6232C119.722 19.6315 119.966 19.6439 120.132 19.6605V22.6435C120.033 22.6186 119.805 22.5813 119.448 22.5316C119.1 22.4736 118.732 22.4446 118.342 22.4446C117.414 22.4446 116.586 22.6393 115.856 23.0288C115.136 23.4099 114.564 23.9402 114.141 24.6197C113.727 25.2908 113.52 26.0573 113.52 26.919V39H110.587ZM129.227 39.4474C128.017 39.4474 126.919 39.2196 125.933 38.7638C124.947 38.2998 124.164 37.6328 123.584 36.7628C123.004 35.8845 122.714 34.8239 122.714 33.581C122.714 32.4872 122.93 31.6006 123.36 30.9212C123.791 30.2334 124.367 29.6948 125.088 29.3054C125.809 28.916 126.604 28.6259 127.474 28.4354C128.353 28.2365 129.235 28.0791 130.122 27.9631C131.282 27.8139 132.222 27.7021 132.943 27.6275C133.672 27.5446 134.203 27.4079 134.534 27.2173C134.874 27.0268 135.044 26.6953 135.044 26.223V26.1236C135.044 24.8973 134.708 23.9444 134.037 23.2649C133.374 22.5855 132.367 22.2457 131.017 22.2457C129.616 22.2457 128.518 22.5523 127.723 23.1655C126.928 23.7786 126.368 24.4332 126.045 25.1293L123.261 24.1349C123.758 22.9749 124.421 22.0717 125.25 21.4254C126.086 20.7708 126.998 20.3151 127.984 20.0582C128.978 19.7931 129.956 19.6605 130.917 19.6605C131.53 19.6605 132.235 19.7351 133.03 19.8842C133.834 20.0251 134.609 20.3192 135.354 20.7667C136.108 21.2141 136.734 21.8894 137.231 22.7926C137.728 23.6958 137.977 24.9055 137.977 26.4219V39H135.044V36.4148H134.894C134.696 36.8291 134.364 37.2724 133.9 37.7447C133.436 38.217 132.819 38.6188 132.048 38.9503C131.278 39.2817 130.337 39.4474 129.227 39.4474ZM129.674 36.8125C130.834 36.8125 131.812 36.5846 132.608 36.1289C133.411 35.6732 134.016 35.0849 134.422 34.364C134.836 33.6431 135.044 32.8849 135.044 32.0895V29.4048C134.919 29.554 134.646 29.6907 134.223 29.815C133.809 29.931 133.328 30.0346 132.782 30.1257C132.243 30.2086 131.717 30.2831 131.203 30.3494C130.698 30.4074 130.287 30.4571 129.973 30.4986C129.21 30.598 128.498 30.7596 127.835 30.9833C127.18 31.1987 126.65 31.526 126.244 31.9652C125.846 32.3961 125.647 32.9844 125.647 33.7301C125.647 34.7493 126.024 35.5199 126.778 36.0419C127.541 36.5556 128.506 36.8125 129.674 36.8125ZM146.264 27.5156V39H143.331V19.9091H146.164V22.892H146.413C146.86 21.9226 147.54 21.1437 148.451 20.5554C149.363 19.9588 150.539 19.6605 151.981 19.6605C153.274 19.6605 154.405 19.9257 155.374 20.456C156.344 20.978 157.098 21.7734 157.636 22.8423C158.175 23.9029 158.444 25.2453 158.444 26.8693V39H155.511V27.0682C155.511 25.5684 155.122 24.4001 154.343 23.5632C153.564 22.718 152.495 22.2955 151.136 22.2955C150.2 22.2955 149.363 22.4985 148.625 22.9045C147.896 23.3105 147.32 23.9029 146.898 24.6818C146.475 25.4607 146.264 26.4053 146.264 27.5156ZM172.107 19.9091V22.3949H162.213V19.9091H172.107ZM165.097 15.3352H168.03V33.5312C168.03 34.3598 168.15 34.9813 168.391 35.3956C168.639 35.8016 168.954 36.075 169.335 36.2159C169.725 36.3485 170.135 36.4148 170.566 36.4148C170.889 36.4148 171.154 36.3982 171.361 36.3651C171.568 36.3236 171.734 36.2905 171.858 36.2656L172.455 38.9006C172.256 38.9751 171.978 39.0497 171.622 39.1243C171.266 39.2071 170.814 39.2486 170.267 39.2486C169.439 39.2486 168.627 39.0704 167.831 38.7141C167.044 38.3578 166.39 37.8151 165.867 37.0859C165.354 36.3568 165.097 35.437 165.097 34.3267V15.3352ZM183.293 37.2599V20.8537H186.077V37.2599H183.293ZM176.482 30.4489V27.6648H192.888V30.4489H176.482Z" fill="white"/>
<path d="M210.192 13.5455L217.749 34.973H218.047L225.604 13.5455H228.836L219.489 39H216.307L206.961 13.5455H210.192ZM232.801 39V13.5455H241.402C243.398 13.5455 245.031 13.9059 246.299 14.6268C247.575 15.3394 248.519 16.3047 249.132 17.5227C249.745 18.7408 250.052 20.0997 250.052 21.5994C250.052 23.0992 249.745 24.4622 249.132 25.6886C248.527 26.9149 247.591 27.8926 246.323 28.6218C245.056 29.3427 243.432 29.7031 241.451 29.7031H235.286V26.9688H241.352C242.719 26.9688 243.817 26.7326 244.645 26.2603C245.474 25.788 246.075 25.15 246.448 24.3462C246.829 23.5342 247.019 22.6186 247.019 21.5994C247.019 20.5803 246.829 19.6688 246.448 18.8651C246.075 18.0613 245.47 17.4316 244.633 16.9759C243.796 16.5118 242.686 16.2798 241.302 16.2798H235.883V39H232.801ZM255.017 39V13.5455H258.1V36.2656H269.932V39H255.017ZM291.409 13.5455H294.492V30.3991C294.492 32.1392 294.082 33.6928 293.261 35.06C292.449 36.4189 291.302 37.492 289.819 38.2791C288.335 39.058 286.595 39.4474 284.598 39.4474C282.601 39.4474 280.861 39.058 279.378 38.2791C277.895 37.492 276.743 36.4189 275.923 35.06C275.111 33.6928 274.705 32.1392 274.705 30.3991V13.5455H277.787V30.1506C277.787 31.3935 278.061 32.4996 278.608 33.4691C279.155 34.4303 279.933 35.1884 280.944 35.7436C281.963 36.2905 283.182 36.5639 284.598 36.5639C286.015 36.5639 287.233 36.2905 288.253 35.7436C289.272 35.1884 290.051 34.4303 290.589 33.4691C291.136 32.4996 291.409 31.3935 291.409 30.1506V13.5455ZM314.568 19.9091C314.419 18.6496 313.814 17.6719 312.753 16.9759C311.693 16.2798 310.392 15.9318 308.85 15.9318C307.724 15.9318 306.738 16.1141 305.892 16.4787C305.055 16.8433 304.401 17.3446 303.929 17.9826C303.465 18.6206 303.233 19.3456 303.233 20.1577C303.233 20.8371 303.394 21.4213 303.717 21.9102C304.049 22.3907 304.471 22.7926 304.985 23.1158C305.499 23.4306 306.037 23.6916 306.601 23.8988C307.164 24.0977 307.682 24.2592 308.154 24.3835L310.74 25.0795C311.403 25.2536 312.14 25.4938 312.952 25.8004C313.772 26.107 314.555 26.5254 315.301 27.0558C316.055 27.5778 316.677 28.2489 317.165 29.0692C317.654 29.8896 317.899 30.8963 317.899 32.0895C317.899 33.465 317.538 34.7079 316.817 35.8182C316.105 36.9285 315.061 37.811 313.685 38.4656C312.318 39.1201 310.657 39.4474 308.701 39.4474C306.878 39.4474 305.3 39.1533 303.966 38.565C302.64 37.9767 301.596 37.1564 300.834 36.104C300.08 35.0517 299.653 33.8295 299.554 32.4375H302.735C302.818 33.3987 303.141 34.1941 303.705 34.8239C304.277 35.4453 304.997 35.9093 305.867 36.2159C306.746 36.5142 307.69 36.6634 308.701 36.6634C309.878 36.6634 310.934 36.4728 311.871 36.0916C312.807 35.7022 313.549 35.1636 314.095 34.4759C314.642 33.7798 314.916 32.9678 314.916 32.0398C314.916 31.1946 314.68 30.5069 314.207 29.9766C313.735 29.4463 313.114 29.0154 312.343 28.6839C311.572 28.3525 310.74 28.0625 309.845 27.8139L306.713 26.919C304.724 26.3473 303.15 25.5311 301.99 24.4705C300.83 23.4099 300.25 22.022 300.25 20.3068C300.25 18.8816 300.635 17.6387 301.405 16.5781C302.184 15.5092 303.228 14.6806 304.538 14.0923C305.855 13.4957 307.326 13.1974 308.95 13.1974C310.591 13.1974 312.049 13.4916 313.325 14.0799C314.601 14.6599 315.612 15.4554 316.358 16.4663C317.112 17.4772 317.509 18.6248 317.551 19.9091H314.568Z" fill="#EC2F46"/>
</g>
<defs>
<filter id="filter0_d_1_82" x="0" y="13.1974" width="356" height="98.8026" filterUnits="userSpaceOnUse" color-interpolation-filters="sRGB">
<feFlood flood-opacity="0" result="BackgroundImageFix"/>
<feColorMatrix in="SourceAlpha" type="matrix" values="0 0 0 0 0 0 0 0 0 0 0 0 0 0 0 0 0 0 127 0" result="hardAlpha"/>
<feOffset dy="4"/>
<feGaussianBlur stdDeviation="2"/>
<feComposite in2="hardAlpha" operator="out"/>
<feColorMatrix type="matrix" values="0 0 0 0 0 0 0 0 0 0 0 0 0 0 0 0 0 0 0.25 0"/>
<feBlend mode="normal" in2="BackgroundImageFix" result="effect1_dropShadow_1_82"/>
<feBlend mode="normal" in="SourceGraphic" in2="effect1_dropShadow_1_82" result="shape"/>
</filter>
</defs>
</svg>
